<?xml version="1.0" encoding="UTF-8"?>
<!DOCTYPE svg PUBLIC "-//W3C//DTD SVG 1.1//EN" "http://www.w3.org/Graphics/SVG/1.1/DTD/svg11.dtd">
<!-- Creator: CorelDRAW X5 -->
<svg xmlns="http://www.w3.org/2000/svg" xml:space="preserve" width="110.145mm" height="130mm" style="shape-rendering:geometricPrecision; text-rendering:geometricPrecision; image-rendering:optimizeQuality; fill-rule:evenodd; clip-rule:evenodd"
viewBox="0 0 11015 13000"
 xmlns:xlink="http://www.w3.org/1999/xlink">
 <defs>
  <style type="text/css">
   <![CDATA[
    .fil0 {fill:#00A2E9}
    .fil2 {fill:#FEFEFE}
    .fil1 {fill:#FFF000}
    .fil3 {fill:#1F4C9D;fill-rule:nonzero}
   ]]>
  </style>
 </defs>
 <g id="Layer_x0020_1">
  <metadata id="CorelCorpID_0Corel-Layer"/>
  <path class="fil0" d="M9693 4245c40,610 256,1351 700,2199 471,901 696,1842 600,2849 -121,1256 -1221,2188 -3315,2616 -1070,218 -1799,525 -2157,1092 -441,-692 -1856,-1025 -2182,-1092 -2095,-427 -3195,-1360 -3315,-2616 -97,-1007 128,-1948 600,-2849 444,-848 660,-1589 700,-2199l8371 0z"/>
  <path class="fil1" d="M9680 3845c168,-771 501,-1458 1000,-2059 -825,-583 -1370,-1178 -1633,-1786 -1171,1632 -5909,1632 -7080,0 -263,607 -807,1202 -1633,1786 499,601 832,1288 1000,2059 2782,0 5564,0 8346,0z"/>
  <polygon class="fil2" points="1328,3845 9687,3845 9687,4245 1328,4245 "/>
  <polygon class="fil2" points="5507,1463 5743,2265 6509,2264 5888,2758 6127,3560 5507,3063 4888,3560 5126,2758 4505,2264 5272,2265 "/>
  <polygon class="fil2" points="3683,1741 3837,2264 4336,2263 3931,2585 4087,3107 3683,2783 3280,3107 3435,2585 3030,2263 3530,2264 "/>
  <polygon class="fil2" points="2264,1741 2417,2264 2917,2263 2512,2585 2667,3107 2264,2783 1860,3107 2015,2585 1611,2263 2110,2264 "/>
  <polygon class="fil2" points="8751,1741 8904,2264 9404,2263 8999,2585 9154,3107 8751,2783 8347,3107 8502,2585 8098,2263 8597,2264 "/>
  <polygon class="fil2" points="7331,1741 7485,2264 7984,2263 7580,2585 7735,3107 7331,2783 6928,3107 7083,2585 6678,2263 7178,2264 "/>
  <polygon class="fil2" points="2549,8950 2462,9489 2960,9705 2409,9821 2323,10361 2070,9893 1519,10012 1914,9606 1659,9140 2156,9357 "/>
  <polygon class="fil2" points="8465,8950 8553,9489 8055,9705 8606,9821 8691,10361 8944,9893 9495,10012 9100,9606 9355,9140 8858,9357 "/>
  <polygon class="fil2" points="4423,9585 4450,10131 4981,10238 4467,10466 4495,11012 4151,10607 3636,10837 3938,10358 3592,9955 4123,10064 "/>
  <polygon class="fil2" points="6591,9585 6565,10131 6033,10238 6548,10466 6519,11012 6864,10607 7378,10837 7076,10358 7422,9955 6891,10064 "/>
  <path class="fil3" d="M2437 7055l0 1147 -525 0 0 -3111c350,-15 554,-23 614,-23 468,0 809,75 1025,226 216,151 324,386 324,706 0,713 -400,1070 -1200,1070 -59,0 -138,-5 -238,-15zm0 -1484l0 992c89,10 159,15 210,15 240,0 415,-42 525,-126 110,-83 165,-221 165,-409 0,-322 -247,-483 -741,-483 -55,0 -109,4 -160,11zm4656 2631l-508 0 -308 -1676 -593 1719 -186 0 -593 -1719 -316 1676 -508 0 595 -3112 277 0 638 2098 622 -2098 277 0 603 3112zm335 0l0 -3112 525 0 0 3112 -525 0zm1150 0l0 -3112 525 0 0 3112 -525 0z"/>
 </g>
</svg>
